HIERARCHY
ROOT Hips
{
	OFFSET 0.000000 0.000000 0.000000
	CHANNELS 6 Xposition Yposition Zposition Zrotation Yrotation Xrotation 
	JOINT LeftUpLeg_virtual
	{
		OFFSET 0.000000 0.000000 0.000000
		CHANNELS 3 Zrotation Yrotation Xrotation
		JOINT LeftUpLeg
		{
			OFFSET 10.205400 -3.823500 0.155100
			CHANNELS 3 Zrotation Yrotation Xrotation
			JOINT LeftLeg
			{
				OFFSET 0.708757 -12.982077 0.567790
				CHANNELS 3 Zrotation Yrotation Xrotation
				JOINT LeftFoot
				{
					OFFSET -0.708756 -10.717838 -2.184338
					CHANNELS 3 Zrotation Yrotation Xrotation
					JOINT LeftToeBase
					{
						OFFSET 0.108149 -7.191104 7.560241
						CHANNELS 3 Zrotation Yrotation Xrotation
						End Site
						{
							OFFSET 0.000000 0.000000 0.000000
						}
					}
				}
			}
		}
	}
	JOINT RightUpLeg_virtual
	{
		OFFSET 0.000000 0.000000 0.000000
		CHANNELS 3 Zrotation Yrotation Xrotation
		JOINT RightUpLeg
		{
			OFFSET -10.205400 -3.823500 0.005500
			CHANNELS 3 Zrotation Yrotation Xrotation
			JOINT RightLeg
			{
				OFFSET -0.708756 -12.982134 0.610632
				CHANNELS 3 Zrotation Yrotation Xrotation
				JOINT RightFoot
				{
					OFFSET 0.708754 -10.717769 -1.945823
					CHANNELS 3 Zrotation Yrotation Xrotation
					JOINT RightToeBase
					{
						OFFSET -0.108140 -7.191069 7.372968
						CHANNELS 3 Zrotation Yrotation Xrotation
						End Site
						{
							OFFSET 0.000000 0.000000 0.000000
						}
					}
				}
			}
		}
	}
	JOINT Spine_virtual
	{
		OFFSET 0.000000 0.000000 0.000000
		CHANNELS 3 Zrotation Yrotation Xrotation
		JOINT Spine
		{
			OFFSET 0.000000 6.876099 0.125700
			CHANNELS 3 Zrotation Yrotation Xrotation
			JOINT Spine1
			{
				OFFSET 0.000000 8.022060 0.146608
				CHANNELS 3 Zrotation Yrotation Xrotation
				JOINT Spine2
				{
					OFFSET 0.000000 9.168068 0.167552
					CHANNELS 3 Zrotation Yrotation Xrotation
					JOINT Neck_virtual
					{
						OFFSET 0.000000 0.000000 0.000000
						CHANNELS 3 Zrotation Yrotation Xrotation
						JOINT Neck
						{
							OFFSET 0.000000 10.314075 0.188496
							CHANNELS 3 Zrotation Yrotation Xrotation
							JOINT Head
							{
								OFFSET 0.000000 7.643700 -2.377400
								CHANNELS 3 Zrotation Yrotation Xrotation
								End Site
								{
									OFFSET 0.000000 0.000000 0.000000
								}
							}
						}
					}
					JOINT LeftShoulder_virtual
					{
						OFFSET 0.000000 0.000000 0.000000
						CHANNELS 3 Zrotation Yrotation Xrotation
						JOINT LeftShoulder
						{
							OFFSET 4.392200 8.824978 0.174984
							CHANNELS 3 Zrotation Yrotation Xrotation
							JOINT LeftArm
							{
								OFFSET 8.771219 -2.981674 -0.026999
								CHANNELS 3 Zrotation Yrotation Xrotation
								JOINT LeftForeArm
								{
									OFFSET 8.512804 0.000000 -0.000000
									CHANNELS 3 Zrotation Yrotation Xrotation
									JOINT LeftHand
									{
										OFFSET 18.484802 0.000000 -0.000000
										CHANNELS 3 Zrotation Yrotation Xrotation
										End Site
										{
											OFFSET 0.000000 0.000000 0.000000
										}
									}
								}
							}
						}
					}
					JOINT RightShoulder_virtual
					{
						OFFSET 0.000000 0.000000 0.000000
						CHANNELS 3 Zrotation Yrotation Xrotation
						JOINT RightShoulder
						{
							OFFSET -4.392200 8.824993 0.141379
							CHANNELS 3 Zrotation Yrotation Xrotation
							JOINT RightArm
							{
								OFFSET -8.771282 -2.981682 -0.094208
								CHANNELS 3 Zrotation Yrotation Xrotation
								JOINT RightForeArm
								{
									OFFSET -8.494598 0.000000 0.000000
									CHANNELS 3 Zrotation Yrotation Xrotation
									JOINT RightHand
									{
										OFFSET -18.483803 0.000000 0.000001
										CHANNELS 3 Zrotation Yrotation Xrotation
										End Site
										{
											OFFSET 0.000000 0.000000 0.000000
										}
									}
								}
							}
						}
					}
				}
			}
		}
	}
}
MOTION
Frames: 8
Frame Time: 0.033333
-1.318185 23.844625 -0.162917 179.787381 4.762844 -179.914368 1.173714 -3.887168 -3.539223 4.125106 11.628953 -72.207011 9.337935 -1.179788 96.013007 -2.538750 -6.385444 -5.374603 0.000000 0.000000 0.000000 2.681021 -0.688185 -2.926644 7.361577 -13.342556 -75.034669 2.252423 -0.119969 81.645035 -2.474483 4.331308 -0.553793 0.000000 0.000000 0.000000 -1.640680 1.020567 -3.718894 -0.279989 -1.487650 -6.123426 -0.070312 -2.808844 12.293568 -0.020949 0.005523 0.033002 -0.155968 -1.584620 17.498057 0.104512 -0.643609 29.649479 0.000000 0.000000 0.000000 1.743646 -1.282139 12.627047 -10.792419 -10.224300 2.625377 -46.850952 -4.059735 33.899516 -162.610207 -86.492168 -177.490307 0.000000 0.000000 0.000000 -1.788103 0.087890 12.024102 5.164453 8.733850 -9.110990 26.873487 -11.048614 -0.960828 -174.452061 76.162756 -174.593323 0.000000 0.000000 0.000000 
-1.356002 23.823547 -0.233652 179.878113 5.425196 -179.907920 1.082922 -3.471485 -3.540755 4.435867 12.070017 -72.219886 9.070200 -1.158917 96.696832 -2.501666 -6.542495 -5.828923 0.000000 0.000000 0.000000 2.575980 -0.272112 -3.018949 7.718732 -13.318311 -74.760785 2.436506 -0.066440 81.600502 -2.591956 4.291725 -0.662170 0.000000 0.000000 0.000000 -1.728894 1.330923 -3.703668 -0.345278 -1.587079 -6.117806 -0.026265 -2.782973 12.218717 0.024340 -0.099288 -0.002007 -0.242611 -1.550066 17.512450 0.051366 -0.644224 29.757136 0.000000 0.000000 0.000000 1.602367 -1.287090 12.642402 -10.591510 -10.035104 2.487222 -47.294327 -3.478388 33.678645 -161.134435 -86.799793 -178.908322 0.000000 0.000000 0.000000 -1.904855 0.055043 12.052779 5.307899 8.518665 -9.235800 26.781711 -10.746249 0.312036 -174.962918 75.998176 -175.048978 0.000000 0.000000 0.000000 
-1.426598 23.806787 -0.306850 179.917783 6.111039 -179.922537 0.789963 -2.900328 -3.597529 4.679085 12.515546 -72.256721 8.750718 -1.056833 97.359012 -2.409110 -6.762581 -6.277181 0.000000 0.000000 0.000000 2.292189 0.381648 -2.788553 7.945858 -13.202167 -74.760177 2.668676 0.198402 81.614340 -2.708795 4.266925 -0.952726 0.000000 0.000000 0.000000 -1.847046 1.683164 -3.711037 -0.365322 -1.855113 -6.069297 -0.036422 -2.946999 12.124421 -0.007617 0.003003 0.024173 -0.303932 -1.563802 17.375646 -0.061701 -0.683353 29.707419 0.000000 0.000000 0.000000 1.561552 -1.371732 12.532424 -10.348695 -9.736721 2.434317 -47.532079 -3.066069 33.481878 -159.238306 -87.152353 179.232196 0.000000 0.000000 0.000000 -1.954651 0.071248 11.975076 5.488531 8.549541 -9.183438 26.646957 -9.711673 1.238431 -175.174913 75.639892 -175.272585 0.000000 0.000000 0.000000 
-1.524789 23.787874 -0.374019 179.918876 6.829163 -179.873387 0.542119 -2.375692 -3.709565 4.771759 13.013436 -72.360984 8.516427 -0.931734 98.092527 -2.083767 -6.790928 -6.825528 0.000000 0.000000 0.000000 2.109457 0.992912 -2.873902 8.142772 -13.150872 -74.593036 2.904103 0.580317 81.617755 -2.671087 4.335877 -1.092967 0.000000 0.000000 0.000000 -1.918404 2.058289 -3.802599 -0.389722 -1.993574 -6.001448 -0.065047 -3.043744 11.958245 0.014548 -0.008540 0.000352 -0.319524 -1.663863 17.269423 -0.091798 -0.653521 29.547702 0.000000 0.000000 0.000000 1.533281 -1.471214 12.474616 -10.152846 -9.568862 2.565951 -47.731759 -2.865844 33.132087 -159.642134 -87.392632 179.686308 0.000000 0.000000 0.000000 -1.999047 -0.053108 11.877626 5.629613 8.519476 -9.207046 26.276872 -8.360714 1.432681 -175.649776 75.260816 -175.859189 0.000000 0.000000 0.000000 
-1.659649 23.775686 -0.434988 179.964160 7.616875 -179.905038 0.380593 -1.999489 -3.749395 4.774991 13.349627 -72.326137 8.434150 -0.817993 98.870554 -1.558397 -6.621473 -7.446469 0.000000 0.000000 0.000000 1.892966 1.351239 -2.954978 8.592287 -13.225773 -74.406605 3.167503 1.081905 81.366773 -2.603910 4.489081 -0.956128 0.000000 0.000000 0.000000 -1.926074 2.318970 -3.882600 -0.361921 -2.030655 -5.809442 -0.046301 -3.095564 11.818597 -0.007845 -0.111526 0.034666 -0.278569 -1.818045 17.093260 -0.143505 -0.585868 29.304623 0.000000 0.000000 0.000000 1.546830 -1.580499 12.317161 -10.007428 -9.350785 2.479450 -47.889892 -2.677644 32.990838 -155.041975 -87.562971 175.109193 0.000000 0.000000 0.000000 -2.002278 -0.189352 11.661431 5.727579 8.457059 -9.188858 25.928505 -6.972918 0.770256 -175.755534 74.884070 -176.172381 0.000000 0.000000 0.000000 
-1.817094 23.768055 -0.496289 179.972780 8.365354 -179.775073 0.249961 -1.940307 -3.802526 4.760884 13.546784 -72.309560 8.358679 -0.777296 99.692444 -0.971471 -6.364309 -8.105101 0.000000 0.000000 0.000000 1.759508 1.403910 -3.186122 8.712200 -13.297689 -74.250638 3.294618 1.215902 80.966647 -2.292339 4.864914 -0.547272 0.000000 0.000000 0.000000 -1.978751 2.259731 -4.108391 -0.382385 -2.070720 -5.658869 -0.056003 -3.223059 11.614776 0.019087 0.012904 0.030462 -0.314031 -1.891344 16.931699 -0.208146 -0.453230 28.886581 0.000000 0.000000 0.000000 1.492658 -1.733920 12.143972 -9.928360 -9.122700 2.748049 -48.073883 -2.811388 32.877204 -155.838143 -87.659324 175.955017 0.000000 0.000000 0.000000 -2.041139 -0.263196 11.463845 5.810382 8.444235 -9.022762 25.729785 -6.136142 -0.461587 -175.800600 74.377229 -176.511090 0.000000 0.000000 0.000000 
-1.954464 23.761154 -0.568437 179.965103 8.946710 -179.883386 0.126825 -1.968227 -3.695683 4.850271 13.526684 -72.117235 8.208466 -0.836035 100.454352 -0.473157 -6.115846 -8.596335 0.000000 0.000000 0.000000 1.624920 1.223554 -3.340648 9.017190 -13.398469 -73.952473 3.452071 1.421572 80.543974 -2.044422 5.160300 -0.188096 0.000000 0.000000 0.000000 -2.069426 2.029167 -4.100929 -0.450395 -1.898888 -5.427422 -0.089514 -3.389120 11.401486 0.013648 -0.056232 0.025954 -0.347152 -1.976738 16.712633 -0.339037 -0.276790 28.409082 0.000000 0.000000 0.000000 1.492779 -1.762912 11.954002 -9.834136 -8.769625 2.867181 -48.167437 -2.913654 32.745170 -151.825379 -87.619197 172.002482 0.000000 0.000000 0.000000 -2.052952 -0.321891 11.252696 5.945587 8.434251 -8.845970 25.769127 -5.894000 -1.640522 -175.742871 73.937611 -176.797466 0.000000 0.000000 0.000000 
-2.056483 23.760832 -0.632761 179.923097 9.341981 -179.767861 -0.006960 -2.093505 -3.713036 4.830320 13.585064 -72.153627 8.023930 -0.836695 100.979470 -0.051485 -5.834637 -8.926422 0.000000 0.000000 0.000000 1.488812 1.074055 -3.510171 9.123890 -13.515499 -73.784806 3.667219 1.315122 80.229069 -2.042296 5.184551 -0.078485 0.000000 0.000000 0.000000 -2.218563 1.974029 -4.184879 -0.526677 -1.940754 -5.326131 -0.142828 -3.445429 11.162360 0.004038 -0.049095 0.048647 -0.349142 -2.111306 16.480565 -0.489213 -0.025331 27.737405 0.000000 0.000000 0.000000 1.495930 -1.856539 11.773165 -9.713606 -8.417418 2.945307 -48.134389 -3.009835 32.585279 -148.395996 -87.609190 168.647083 0.000000 0.000000 0.000000 -2.020418 -0.403130 11.076181 6.140994 8.451735 -8.517981 26.124900 -6.065781 -2.590377 -175.704294 73.476245 -177.152349 0.000000 0.000000 0.000000 
